# xmcd
#
# Track frame offsets:
#	150
#	15420
#	38241
#	54285
#	74580
#	93048
#	112458
#	130991
#	139098
#	153542
#	169378
#
# Disc length: 2584 seconds
#
# Revision: 1
# Processed by: cddbd v1.5.2PL0 Copyright (c) Steve Scherf et al.
# Submitted via: audiograbber 1.83.01
#
DISCID=990a160b
DTITLE=Gallaher, Ben - Ben Gallaher
DYEAR=2012
DGENRE=Country
TTITLE0=Then There's Friday
TTITLE1=Tennessee Whiskey
TTITLE2=Red, White and Blue
TTITLE3=Good in Goodbye, The
TTITLE4=No Strings Attached
TTITLE5=Right Beside Me (w Emma White)
TTITLE6=In Her Heart
TTITLE7=In Her Heart (Reprise)
TTITLE8=Hold Onto Me
TTITLE9=Last Call
TTITLE10=Grandpa's Song
EXTD=
EXTT0=
EXTT1=
EXTT2=
EXTT3=
EXTT4=
EXTT5=
EXTT6=
EXTT7=
EXTT8=
EXTT9=
EXTT10=
PLAYORDER=
